{"accessors" : [{"bufferView" : 0, "byteOffset" : 0, "componentType" : 5123, "count" : 3345, "type" : "SCALAR", "max" : [2202], "min" : [0]}, {"bufferView" : 1, "byteOffset" : 0, "componentType" : 5126, "count" : 2203, "type" : "VEC3", "max" : [6.218092918395996, 0.5954861044883728, 4.188432216644287], "min" : [-5.943115711212158, -0.003139637177810073, -3.852377414703369], "name" : "POSITION"}, {"bufferView" : 1, "byteOffset" : 12, "componentType" : 5126, "count" : 2203, "type" : "VEC3", "max" : [1.0000044107437134, 0.014099651016294956, 1.0000044107437134], "min" : [-1.0000044107437134, -0.9701049327850342, -1.0000044107437134], "name" : "NORMAL"}, {"bufferView" : 1, "byteOffset" : 24, "componentType" : 5126, "count" : 2203, "type" : "VEC2", "max" : [0.9996595978736877, 2], "min" : [0, 1.1027038097381592], "name" : "TEXCOORD_0"}, {"bufferView" : 0, "byteOffset" : 6692, "componentType" : 5123, "count" : 528, "type" : "SCALAR", "max" : [191], "min" : [0]}, {"bufferView" : 2, "byteOffset" : 0, "componentType" : 5126, "count" : 192, "type" : "VEC3", "max" : [5.9686970710754395, 0.5766579508781433, 4.188431262969971], "min" : [-2.8333046436309814, 0.5673806667327881, -1.6270434856414795], "name" : "POSITION"}, {"bufferView" : 2, "byteOffset" : 12, "componentType" : 5126, "count" : 192, "type" : "VEC3", "max" : [0.002500002970919013, 1.0000041723251343, 0.001300003263168037], "min" : [-0.0012000014539808035, -1.0000044107437134, -0.002200002782046795], "name" : "NORMAL"}, {"bufferView" : 2, "byteOffset" : 24, "componentType" : 5126, "count" : 192, "type" : "VEC2", "max" : [0.9548304080963135, 2], "min" : [0, 1.1027038097381592], "name" : "TEXCOORD_0"}, {"bufferView" : 0, "byteOffset" : 7748, "componentType" : 5123, "count" : 420, "type" : "SCALAR", "max" : [147], "min" : [0]}, {"bufferView" : 3, "byteOffset" : 0, "componentType" : 5126, "count" : 148, "type" : "VEC3", "max" : [3.4157557487487793, 0.5954861044883728, 3.7158968448638916], "min" : [-5.059954643249512, 0.5630685687065125, -3.7276806831359863], "name" : "POSITION"}, {"bufferView" : 3, "byteOffset" : 12, "componentType" : 5126, "count" : 148, "type" : "VEC3", "max" : [0.0010000040056183934, 0.9999971389770508, 0.004399977158755064], "min" : [-0.0002999991411343217, -1.0000039339065552, -0.0037999891210347414], "name" : "NORMAL"}, {"bufferView" : 3, "byteOffset" : 24, "componentType" : 5126, "count" : 148, "type" : "VEC2", "max" : [0.9249045252799988, 2], "min" : [0, 1.1983140707015991], "name" : "TEXCOORD_0"}, {"bufferView" : 0, "byteOffset" : 8588, "componentType" : 5123, "count" : 462, "type" : "SCALAR", "max" : [163], "min" : [0]}, {"bufferView" : 4, "byteOffset" : 0, "componentType" : 5126, "count" : 164, "type" : "VEC3", "max" : [6.218090057373047, 0.5748494863510132, 2.7467591762542725], "min" : [-5.943115711212158, 0.5630685687065125, -3.852377414703369], "name" : "POSITION"}, {"bufferView" : 4, "byteOffset" : 12, "componentType" : 5126, "count" : 164, "type" : "VEC3", "max" : [-0.0003000012948177755, 1.0000042915344238, 0.0004000016488134861], "min" : [-0.0012000033166259527, -1.0000041723251343, -0.0014000037917867303], "name" : "NORMAL"}, {"bufferView" : 4, "byteOffset" : 24, "componentType" : 5126, "count" : 164, "type" : "VEC2", "max" : [0.6662553548812866, 2], "min" : [0, 1.1410026550292969], "name" : "TEXCOORD_0"}, {"bufferView" : 0, "byteOffset" : 9512, "componentType" : 5123, "count" : 708, "type" : "SCALAR", "max" : [247], "min" : [0]}, {"bufferView" : 5, "byteOffset" : 0, "componentType" : 5126, "count" : 248, "type" : "VEC3", "max" : [5.170886039733887, 0.59507155418396, 3.0276193618774414], "min" : [-5.089927673339844, 0.5635687708854675, -3.419220447540283], "name" : "POSITION"}, {"bufferView" : 5, "byteOffset" : 12, "componentType" : 5126, "count" : 248, "type" : "VEC3", "max" : [0.0008000031230039895, 1.0000042915344238, 0.0023999949917197227], "min" : [-0.0027000000700354576, -1.0000044107437134, -0.0019000048050656915], "name" : "NORMAL"}, {"bufferView" : 5, "byteOffset" : 24, "componentType" : 5126, "count" : 248, "type" : "VEC2", "max" : [0.8682318329811096, 2], "min" : [0, 1.2576361894607544], "name" : "TEXCOORD_0"}, {"bufferView" : 0, "byteOffset" : 10928, "componentType" : 5123, "count" : 504, "type" : "SCALAR", "max" : [179], "min" : [0]}, {"bufferView" : 6, "byteOffset" : 0, "componentType" : 5126, "count" : 180, "type" : "VEC3", "max" : [4.533726215362549, 0.5954861044883728, 2.9741218090057373], "min" : [-1.3596651554107666, 0.564289927482605, -2.585721969604492], "name" : "POSITION"}, {"bufferView" : 6, "byteOffset" : 12, "componentType" : 5126, "count" : 180, "type" : "VEC3", "max" : [0.0029999956022948027, -0.9998449087142944, 0.00010000041220337152], "min" : [-0.01070048101246357, -1.0000044107437134, -0.014300641603767872], "name" : "NORMAL"}, {"bufferView" : 6, "byteOffset" : 24, "componentType" : 5126, "count" : 180, "type" : "VEC2", "max" : [0, 2], "min" : [0, 2], "name" : "TEXCOORD_0"}], "asset" : {"generator" : "Aspose.3D 25.2.0", "version" : "2.0"}, "buffers" : [{"uri" : "data:application/octet-stream;base64,", "byteLength" : 112284}], "bufferViews" : [{"buffer" : 0, "byteOffset" : 0, "byteLength" : 11936, "target" : 34963}, {"buffer" : 0, "byteOffset" : 11940, "byteLength" : 70496, "byteStride" : 32, "target" : 34962}, {"buffer" : 0, "byteOffset" : 82440, "byteLength" : 6144, "byteStride" : 32, "target" : 34962}, {"buffer" : 0, "byteOffset" : 88588, "byteLength" : 4736, "byteStride" : 32, "target" : 34962}, {"buffer" : 0, "byteOffset" : 93328, "byteLength" : 5248, "byteStride" : 32, "target" : 34962}, {"buffer" : 0, "byteOffset" : 98580, "byteLength" : 7936, "byteStride" : 32, "target" : 34962}, {"buffer" : 0, "byteOffset" : 106520, "byteLength" : 5760, "byteStride" : 32, "target" : 34962}], "materials" : [{"name" : "Material.002", "pbrMetallicRoughness" : {"baseColorFactor" : [0.8681138753890991, 0.9705110788345337, 1, 1], "metallicFactor" : 0, "roughnessFactor" : 0.5}, "emissiveFactor" : [0, 0, 0], "alphaMode" : "OPAQUE", "doubleSided" : true}], "meshes" : [{"primitives" : [{"attributes" : {"POSITION" : 1, "NORMAL" : 2, "TEXCOORD_0" : 3}, "indices" : 0, "material" : 0, "mode" : 4}, {"attributes" : {"POSITION" : 5, "NORMAL" : 6, "TEXCOORD_0" : 7}, "indices" : 4, "material" : 0, "mode" : 4}, {"attributes" : {"POSITION" : 9, "NORMAL" : 10, "TEXCOORD_0" : 11}, "indices" : 8, "material" : 0, "mode" : 4}, {"attributes" : {"POSITION" : 13, "NORMAL" : 14, "TEXCOORD_0" : 15}, "indices" : 12, "material" : 0, "mode" : 4}, {"attributes" : {"POSITION" : 17, "NORMAL" : 18, "TEXCOORD_0" : 19}, "indices" : 16, "material" : 0, "mode" : 4}, {"attributes" : {"POSITION" : 21, "NORMAL" : 22, "TEXCOORD_0" : 23}, "indices" : 20, "material" : 0, "mode" : 4}]}], "nodes" : [{"mesh" : 0, "name" : "Plane"}], "scene" : 0, "scenes" : [{"nodes" : [0]}]}